# xmcd CD database file
#
# Track frame offsets:
#	150
#	28615
#	56772
#	78917
#	95517
#	119570
#	150285
#	172092
#
# Disc length: 2635 seconds
#
# Revision: 0
# Processed by: cddbd v1.5.1PL2 Copyright (c) Steve Scherf et al.
# Submitted via: CDex 1.51
#
DISCID=5e0a4908
DTITLE=Ranjit Mani - Kuri Punjaban
DYEAR=1997
DGENRE=Punjabi Bhangra
TTITLE0=Kuri Punjaban
TTITLE1=Raati Neend Na Aundi
TTITLE2=Gidhe Di Balle Balle
TTITLE3=Alakh Jaga Ke Ranjha
TTITLE4=Tu-Tu Main Main Hogi
TTITLE5=Channa Mainu Maaf Karin
TTITLE6=Ni Parminder Kaure
TTITLE7=Yaad Karida Ro-Ro Ke
EXTD=YEAR: 1997
EXTT0=
EXTT1=
EXTT2=
EXTT3=
EXTT4=
EXTT5=
EXTT6=
EXTT7=
PLAYORDER=
